<?xml version="1.0" encoding="UTF-8"?>
<svg id="Camada_1" data-name="Camada 1" xmlns="http://www.w3.org/2000/svg" viewBox="0 0 61.81 56.46">
  <defs>
    <style>
      .cls-1 {
        fill: #fff;
      }

      .cls-1, .cls-2 {
        stroke-width: 0px;
      }

      .cls-2 {
        fill: #fff;
      }
    </style>
  </defs>
  <circle class="cls-1" cx="25.81" cy="28.65" r="14.7"/>
  <g>
    <path class="cls-2" d="M57.34,23.76h-8.98c.29,1.44.44,2.94.44,4.47,0,12.51-10.14,22.65-22.65,22.65-7.03,0-13.31-3.21-17.47-8.24l.96-.28c.69-.2.87-1.08.33-1.55l-2.49-2.11-2.37-2.25c-.52-.49-1.38-.21-1.5.49l-.59,3.21-.76,3.17c-.17.69.5,1.3,1.18,1.06l1.71-.61c4.76,6.43,12.39,10.6,21.01,10.6,12.92,0,23.64-9.37,25.76-21.68h5.43c2.47,0,4.47-2,4.47-4.47s-2-4.47-4.47-4.47Z"/>
    <path class="cls-2" d="M3.49,28.23C3.49,15.72,13.64,5.57,26.15,5.57c7.22,0,13.65,3.39,17.79,8.65l-1.68,1.05c-.61.38-.55,1.28.1,1.58l2.96,1.37,2.88,1.53c.63.34,1.38-.16,1.32-.87l-.29-3.25-.11-3.26c-.02-.71-.83-1.12-1.42-.7l-.85.6c-4.78-6.19-12.27-10.19-20.7-10.19C11.71,2.08,0,13.79,0,28.23c0,1.52.14,3.02.39,4.47h3.55c-.29-1.44-.44-2.94-.44-4.47Z"/>
  </g>
  <g>
    <path class="cls-1" d="M57.34,23.76h-8.98c.29,1.44.44,2.94.44,4.47,0,12.51-10.14,22.65-22.65,22.65-7.03,0-13.31-3.21-17.47-8.24l.96-.28c.69-.2.87-1.08.33-1.55l-2.49-2.11-2.37-2.25c-.52-.49-1.38-.21-1.5.49l-.59,3.21-.76,3.17c-.17.69.5,1.3,1.18,1.06l1.71-.61c4.76,6.43,12.39,10.6,21.01,10.6,12.92,0,23.64-9.37,25.76-21.68h5.43c2.47,0,4.47-2,4.47-4.47s-2-4.47-4.47-4.47Z"/>
    <path class="cls-1" d="M3.49,28.23C3.49,15.72,13.64,5.57,26.15,5.57c7.22,0,13.65,3.39,17.79,8.65l-1.68,1.05c-.61.38-.55,1.28.1,1.58l2.96,1.37,2.88,1.53c.63.34,1.38-.16,1.32-.87l-.29-3.25-.11-3.26c-.02-.71-.83-1.12-1.42-.7l-.85.6c-4.78-6.19-12.27-10.19-20.7-10.19C11.71,2.08,0,13.79,0,28.23c0,1.52.14,3.02.39,4.47h3.55c-.29-1.44-.44-2.94-.44-4.47Z"/>
  </g>
</svg>